<svg xmlns="http://www.w3.org/2000/svg" class="css-ze2te4 css-qd6ojx" viewBox="0 0 90 56.24971291814679"><g transform="translate(-0.013363224278002555, -16.888464675517017) scale(0.17583361057749064)" class="css-1e98oqk" fill="#ffffff"><g xmlns="http://www.w3.org/2000/svg"><path d="M387.962,407.953H24.068V120.041h391.885v67.979c0,2.21,1.78,3.999,3.999,3.999c2.202,0,3.999-1.789,3.999-3.999v-71.978   v-7.998c0-6.615-5.39-11.996-11.997-11.996H12.072c-6.615,0-11.996,5.381-11.996,11.996v7.998v295.91   c0,2.21,1.788,3.999,3.999,3.999h383.887c2.202,0,3.999-1.789,3.999-3.999S390.164,407.953,387.962,407.953z M16.071,148.033   v23.992v23.993v23.992v23.993v23.992v23.993v23.992v23.993v23.992v23.993v19.993H8.073v-15.994h3.999   c2.21,0,3.999-1.789,3.999-3.999c0-2.211-1.789-3.999-3.999-3.999H8.073v-15.995h3.999c2.21,0,3.999-1.788,3.999-3.999   c0-2.21-1.789-3.998-3.999-3.998H8.073v-15.996h3.999c2.21,0,3.999-1.788,3.999-3.998c0-2.211-1.789-3.999-3.999-3.999H8.073   V319.98h3.999c2.21,0,3.999-1.789,3.999-3.999s-1.789-3.999-3.999-3.999H8.073v-15.994h3.999c2.21,0,3.999-1.789,3.999-3.999   c0-2.211-1.789-3.999-3.999-3.999H8.073v-15.995h3.999c2.21,0,3.999-1.788,3.999-3.999c0-2.21-1.789-3.998-3.999-3.998H8.073   v-15.996h3.999c2.21,0,3.999-1.789,3.999-3.999c0-2.211-1.789-3.999-3.999-3.999H8.073V224.01h3.999   c2.21,0,3.999-1.789,3.999-3.999c0-2.21-1.789-3.999-3.999-3.999H8.073v-15.995h3.999c2.21,0,3.999-1.789,3.999-3.999   c0-2.211-1.789-3.999-3.999-3.999H8.073v-15.995h3.999c2.21,0,3.999-1.789,3.999-3.999c0-2.21-1.789-3.999-3.999-3.999H8.073   v-15.995h3.999C14.283,152.032,16.071,150.243,16.071,148.033c0-2.211-1.789-3.999-3.999-3.999H8.073v-23.993h7.998V148.033z    M8.073,108.045c0-2.202,1.793-3.999,3.999-3.999h8.158c-2.21,0-3.959,1.789-3.959,3.999c0,2.21,1.831,3.999,4.038,3.999   c2.21,0,3.999-1.789,3.999-3.999c0-2.21-1.788-3.999-3.999-3.999h15.917c-2.21,0-3.959,1.789-3.959,3.999   c0,2.21,1.831,3.999,4.038,3.999c2.21,0,3.999-1.789,3.999-3.999c0-2.21-1.788-3.999-3.999-3.999H52.22   c-2.21,0-3.959,1.789-3.959,3.999c0,2.21,1.831,3.999,4.038,3.999c2.21,0,3.999-1.789,3.999-3.999c0-2.21-1.788-3.999-3.999-3.999   h359.656c2.163,0,3.999,1.828,3.999,3.999v3.999H52.298H36.303H20.308H8.073V108.045z"/><path d="M503.738,325.299c0.055-0.211,0.078-0.422,0.102-0.633c0.023-0.18,0.07-0.344,0.063-0.523   c-0.008-0.132-0.039-0.257-0.055-0.397c-0.016-0.094,0.016-0.18,0-0.273c-0.023-0.125-0.102-0.219-0.141-0.336   c-0.047-0.164-0.063-0.32-0.125-0.477c-0.063-0.133-0.148-0.242-0.219-0.367c-0.116-0.211-0.249-0.391-0.405-0.578   c-0.078-0.093-0.109-0.21-0.203-0.304l-39.988-40.238l0,0c-0.358-0.367-0.804-0.664-1.288-0.867   c-0.492-0.211-1.023-0.313-1.547-0.313h-79.968c-0.055,0-0.094,0.023-0.141,0.031c-0.484,0.016-0.952,0.094-1.39,0.281   c-0.5,0.203-0.938,0.492-1.313,0.867l0,0l-39.988,40.238c-0.094,0.102-0.125,0.227-0.219,0.335   c-0.14,0.172-0.265,0.344-0.374,0.539c-0.078,0.133-0.172,0.242-0.227,0.375c-0.07,0.156-0.086,0.32-0.133,0.477   c-0.031,0.117-0.109,0.211-0.133,0.336c-0.023,0.094,0.008,0.18,0.008,0.273c-0.023,0.141-0.063,0.266-0.063,0.397   c0,0.18,0.047,0.344,0.063,0.523c0.023,0.211,0.047,0.422,0.109,0.633c0.031,0.117,0.047,0.234,0.086,0.352   c0.055,0.148,0.164,0.281,0.242,0.43c0.109,0.211,0.227,0.406,0.374,0.602c0.063,0.07,0.078,0.172,0.148,0.242l79.977,87.723   c0.039,0.047,0.102,0.063,0.148,0.109s0.063,0.102,0.109,0.148c0.141,0.125,0.305,0.172,0.452,0.273   c0.102,0.078,0.188,0.164,0.297,0.227c0.063,0.039,0.094,0.094,0.156,0.125c0.031,0.016,0.07,0.008,0.109,0.023   c0.063,0.031,0.117,0.063,0.188,0.086c0.469,0.195,0.969,0.305,1.484,0.313c0,0,0,0,0.008,0l0,0c0.008,0,0.008,0,0.008,0l0,0l0,0   c0,0,0.008,0,0.016,0c0.499-0.008,0.999-0.117,1.483-0.313c0.063-0.023,0.125-0.055,0.188-0.086   c0.031-0.016,0.063-0.008,0.094-0.023c0.063-0.031,0.102-0.086,0.156-0.125c0.125-0.063,0.203-0.148,0.313-0.227   c0.141-0.102,0.313-0.148,0.438-0.273c0.047-0.047,0.063-0.102,0.109-0.148s0.109-0.063,0.156-0.109l79.976-87.723   c0.063-0.07,0.086-0.172,0.148-0.242c0.148-0.195,0.257-0.391,0.374-0.602c0.078-0.148,0.18-0.281,0.242-0.43   C503.691,325.533,503.707,325.416,503.738,325.299z M453.465,335.976l-33.513,67.034l-33.521-67.034H453.465z M388.5,327.979   l31.452-37.739l31.443,37.739H388.5z M455.941,320.926l-27.453-32.936h27.453V320.926z M463.938,293.684l27.866,28.046   l-27.866,5.397V293.684z M383.963,320.926V287.99h27.444L383.963,320.926z M375.965,327.127l-27.866-5.397l27.866-28.046V327.127z    M377.262,335.53l26.211,52.414l-52.414-57.49L377.262,335.53z M462.626,335.53l26.211-5.076l-52.413,57.49L462.626,335.53z"/><path d="M419.952,208.015c-2.219,0-3.999,1.788-3.999,3.999v47.985c0,2.21,1.78,3.999,3.999,3.999c2.202,0,3.999-1.789,3.999-3.999   v-47.985C423.951,209.803,422.154,208.015,419.952,208.015z"/><path d="M329.151,233.179c-1.562,1.562-1.562,4.093,0,5.654l31.99,31.99c0.781,0.781,1.796,1.172,2.827,1.172   c1.016,0,2.047-0.391,2.827-1.172c1.563-1.562,1.563-4.093,0-5.654l-31.99-31.99C333.244,231.617,330.713,231.617,329.151,233.179z   "/><path d="M510.752,233.179c-1.562-1.562-4.092-1.562-5.654,0l-31.99,31.99c-1.563,1.562-1.563,4.093,0,5.654   c0.781,0.781,1.797,1.172,2.827,1.172c1.016,0,2.046-0.391,2.827-1.172l31.99-31.99   C512.314,237.271,512.314,234.741,510.752,233.179z"/><path d="M76.053,144.034h-31.99c-2.21,0-3.999,1.788-3.999,3.999c0,2.21,1.789,3.999,3.999,3.999h31.99   c2.21,0,3.999-1.789,3.999-3.999C80.052,145.822,78.263,144.034,76.053,144.034z"/><path d="M212.012,176.024c2.21,0,3.999-1.789,3.999-3.999c0-2.21-1.789-3.999-3.999-3.999H108.043c-2.21,0-3.999,1.789-3.999,3.999   c0,2.21,1.789,3.999,3.999,3.999"/><path d="M92.048,168.027H52.06c-2.21,0-3.999,1.789-3.999,3.999c0,2.21,1.788,3.999,3.999,3.999h39.988   c2.21,0,3.999-1.789,3.999-3.999C96.047,169.815,94.258,168.027,92.048,168.027z"/><path d="M311.984,196.019c0-2.211-1.796-3.999-3.998-3.999H204.014c-2.21,0-3.999,1.788-3.999,3.999   c0,2.21,1.789,3.999,3.999,3.999h103.973C310.188,200.017,311.984,198.229,311.984,196.019z"/><path d="M56.059,196.019c0,2.21,1.789,3.999,3.999,3.999h127.961c2.21,0,3.999-1.789,3.999-3.999c0-2.211-1.789-3.999-3.999-3.999   H60.058C57.848,192.02,56.059,193.808,56.059,196.019z"/><path d="M60.058,248.002H84.05c2.21,0,3.999-1.789,3.999-3.999c0-2.211-1.788-3.999-3.999-3.999H60.058   c-2.21,0-3.999,1.788-3.999,3.999C56.059,246.214,57.848,248.002,60.058,248.002z"/><path d="M210.762,248.002c2.21,0,3.999-1.789,3.999-3.999c0-2.211-1.789-3.999-3.999-3.999H100.045   c-2.21,0-3.999,1.788-3.999,3.999c0,2.21,1.788,3.999,3.999,3.999H210.762z"/><path d="M60.058,335.976c-2.21,0-3.999,1.788-3.999,3.999c0,2.21,1.789,3.998,3.999,3.998H84.05c2.21,0,3.999-1.788,3.999-3.998   c0-2.211-1.788-3.999-3.999-3.999H60.058z"/><path d="M214.761,339.975c0-2.211-1.789-3.999-3.999-3.999H100.045c-2.21,0-3.999,1.788-3.999,3.999   c0,2.21,1.788,3.998,3.999,3.998h110.716C212.972,343.973,214.761,342.185,214.761,339.975z"/><path d="M244.002,216.012H68.055c-2.21,0-3.999,1.789-3.999,3.999c0,2.21,1.788,3.999,3.999,3.999h175.947   c2.21,0,3.999-1.789,3.999-3.999C248,217.801,246.212,216.012,244.002,216.012z"/><path d="M240.003,267.996c0-2.21-1.789-3.998-3.999-3.998h-71.978c-2.211,0-3.999,1.788-3.999,3.998   c0,2.211,1.788,3.999,3.999,3.999h71.978C238.214,271.995,240.003,270.207,240.003,267.996z"/><path d="M184.02,291.989c0-2.211-1.789-3.999-3.999-3.999H52.06c-2.21,0-3.999,1.788-3.999,3.999c0,2.21,1.788,3.999,3.999,3.999   h127.961C182.231,295.988,184.02,294.199,184.02,291.989z"/><path d="M144.032,363.967c0-2.21-1.789-3.998-3.999-3.998H52.06c-2.21,0-3.999,1.788-3.999,3.998c0,2.211,1.788,3.999,3.999,3.999   h87.973C142.244,367.966,144.032,366.178,144.032,363.967z"/><path d="M271.997,315.981c0-2.21-1.796-3.999-3.999-3.999h-111.97c-2.21,0-3.999,1.789-3.999,3.999s1.789,3.999,3.999,3.999h111.97   C270.201,319.98,271.997,318.191,271.997,315.981z"/><path d="M144.032,315.981c0-2.21-1.789-3.999-3.999-3.999H60.058c-2.21,0-3.999,1.789-3.999,3.999s1.789,3.999,3.999,3.999h79.976   C142.244,319.98,144.032,318.191,144.032,315.981z"/><path d="M44.063,391.959h31.99c2.21,0,3.999-1.789,3.999-3.999c0-2.211-1.789-3.999-3.999-3.999h-31.99   c-2.21,0-3.999,1.788-3.999,3.999C40.063,390.17,41.853,391.959,44.063,391.959z"/><path d="M196.017,295.988h47.985c2.21,0,3.999-1.789,3.999-3.999c0-2.211-1.789-3.999-3.999-3.999h-47.985   c-2.211,0-3.999,1.788-3.999,3.999C192.018,294.199,193.806,295.988,196.017,295.988z"/><path d="M60.058,271.995h87.974c2.21,0,3.999-1.788,3.999-3.999c0-2.21-1.789-3.998-3.999-3.998H60.058   c-2.21,0-3.999,1.788-3.999,3.998C56.059,270.207,57.848,271.995,60.058,271.995z"/></g></g></svg>