<svg xmlns="http://www.w3.org/2000/svg" viewBox="0 0 309.2571487426758 292" preserveAspectRatio="xMidYMid meet" class="css-116ckqy" id="eadfddad"><defs id="SvgjsDefs1015"/><g id="SvgjsG1016" featurekey="rootContainer" transform="matrix(1,0,0,1,0,0)" fill="#111"><path xmlns="http://www.w3.org/2000/svg" fill-rule="evenodd" d="M5,65 L154.5,0 L304, 65 L154.5, 10 z M5,212 L154.5,292 L304,207 L154.5, 282 z"/></g><g id="SvgjsG1017" featurekey="symbolFeature-0" transform="matrix(0.17583361057749064,0,0,0.17583361057749064,109.98663677572199,73.11153532448299)" fill="#111"><g xmlns="http://www.w3.org/2000/svg"><path d="M387.962,407.953H24.068V120.041h391.885v67.979c0,2.21,1.78,3.999,3.999,3.999c2.202,0,3.999-1.789,3.999-3.999v-71.978   v-7.998c0-6.615-5.39-11.996-11.997-11.996H12.072c-6.615,0-11.996,5.381-11.996,11.996v7.998v295.91   c0,2.21,1.788,3.999,3.999,3.999h383.887c2.202,0,3.999-1.789,3.999-3.999S390.164,407.953,387.962,407.953z M16.071,148.033   v23.992v23.993v23.992v23.993v23.992v23.993v23.992v23.993v23.992v23.993v19.993H8.073v-15.994h3.999   c2.21,0,3.999-1.789,3.999-3.999c0-2.211-1.789-3.999-3.999-3.999H8.073v-15.995h3.999c2.21,0,3.999-1.788,3.999-3.999   c0-2.21-1.789-3.998-3.999-3.998H8.073v-15.996h3.999c2.21,0,3.999-1.788,3.999-3.998c0-2.211-1.789-3.999-3.999-3.999H8.073   V319.98h3.999c2.21,0,3.999-1.789,3.999-3.999s-1.789-3.999-3.999-3.999H8.073v-15.994h3.999c2.21,0,3.999-1.789,3.999-3.999   c0-2.211-1.789-3.999-3.999-3.999H8.073v-15.995h3.999c2.21,0,3.999-1.788,3.999-3.999c0-2.21-1.789-3.998-3.999-3.998H8.073   v-15.996h3.999c2.21,0,3.999-1.789,3.999-3.999c0-2.211-1.789-3.999-3.999-3.999H8.073V224.01h3.999   c2.21,0,3.999-1.789,3.999-3.999c0-2.21-1.789-3.999-3.999-3.999H8.073v-15.995h3.999c2.21,0,3.999-1.789,3.999-3.999   c0-2.211-1.789-3.999-3.999-3.999H8.073v-15.995h3.999c2.21,0,3.999-1.789,3.999-3.999c0-2.21-1.789-3.999-3.999-3.999H8.073   v-15.995h3.999C14.283,152.032,16.071,150.243,16.071,148.033c0-2.211-1.789-3.999-3.999-3.999H8.073v-23.993h7.998V148.033z    M8.073,108.045c0-2.202,1.793-3.999,3.999-3.999h8.158c-2.21,0-3.959,1.789-3.959,3.999c0,2.21,1.831,3.999,4.038,3.999   c2.21,0,3.999-1.789,3.999-3.999c0-2.21-1.788-3.999-3.999-3.999h15.917c-2.21,0-3.959,1.789-3.959,3.999   c0,2.21,1.831,3.999,4.038,3.999c2.21,0,3.999-1.789,3.999-3.999c0-2.21-1.788-3.999-3.999-3.999H52.22   c-2.21,0-3.959,1.789-3.959,3.999c0,2.21,1.831,3.999,4.038,3.999c2.21,0,3.999-1.789,3.999-3.999c0-2.21-1.788-3.999-3.999-3.999   h359.656c2.163,0,3.999,1.828,3.999,3.999v3.999H52.298H36.303H20.308H8.073V108.045z"/><path d="M503.738,325.299c0.055-0.211,0.078-0.422,0.102-0.633c0.023-0.18,0.07-0.344,0.063-0.523   c-0.008-0.132-0.039-0.257-0.055-0.397c-0.016-0.094,0.016-0.18,0-0.273c-0.023-0.125-0.102-0.219-0.141-0.336   c-0.047-0.164-0.063-0.32-0.125-0.477c-0.063-0.133-0.148-0.242-0.219-0.367c-0.116-0.211-0.249-0.391-0.405-0.578   c-0.078-0.093-0.109-0.21-0.203-0.304l-39.988-40.238l0,0c-0.358-0.367-0.804-0.664-1.288-0.867   c-0.492-0.211-1.023-0.313-1.547-0.313h-79.968c-0.055,0-0.094,0.023-0.141,0.031c-0.484,0.016-0.952,0.094-1.39,0.281   c-0.5,0.203-0.938,0.492-1.313,0.867l0,0l-39.988,40.238c-0.094,0.102-0.125,0.227-0.219,0.335   c-0.14,0.172-0.265,0.344-0.374,0.539c-0.078,0.133-0.172,0.242-0.227,0.375c-0.07,0.156-0.086,0.32-0.133,0.477   c-0.031,0.117-0.109,0.211-0.133,0.336c-0.023,0.094,0.008,0.18,0.008,0.273c-0.023,0.141-0.063,0.266-0.063,0.397   c0,0.18,0.047,0.344,0.063,0.523c0.023,0.211,0.047,0.422,0.109,0.633c0.031,0.117,0.047,0.234,0.086,0.352   c0.055,0.148,0.164,0.281,0.242,0.43c0.109,0.211,0.227,0.406,0.374,0.602c0.063,0.07,0.078,0.172,0.148,0.242l79.977,87.723   c0.039,0.047,0.102,0.063,0.148,0.109s0.063,0.102,0.109,0.148c0.141,0.125,0.305,0.172,0.452,0.273   c0.102,0.078,0.188,0.164,0.297,0.227c0.063,0.039,0.094,0.094,0.156,0.125c0.031,0.016,0.07,0.008,0.109,0.023   c0.063,0.031,0.117,0.063,0.188,0.086c0.469,0.195,0.969,0.305,1.484,0.313c0,0,0,0,0.008,0l0,0c0.008,0,0.008,0,0.008,0l0,0l0,0   c0,0,0.008,0,0.016,0c0.499-0.008,0.999-0.117,1.483-0.313c0.063-0.023,0.125-0.055,0.188-0.086   c0.031-0.016,0.063-0.008,0.094-0.023c0.063-0.031,0.102-0.086,0.156-0.125c0.125-0.063,0.203-0.148,0.313-0.227   c0.141-0.102,0.313-0.148,0.438-0.273c0.047-0.047,0.063-0.102,0.109-0.148s0.109-0.063,0.156-0.109l79.976-87.723   c0.063-0.07,0.086-0.172,0.148-0.242c0.148-0.195,0.257-0.391,0.374-0.602c0.078-0.148,0.18-0.281,0.242-0.43   C503.691,325.533,503.707,325.416,503.738,325.299z M453.465,335.976l-33.513,67.034l-33.521-67.034H453.465z M388.5,327.979   l31.452-37.739l31.443,37.739H388.5z M455.941,320.926l-27.453-32.936h27.453V320.926z M463.938,293.684l27.866,28.046   l-27.866,5.397V293.684z M383.963,320.926V287.99h27.444L383.963,320.926z M375.965,327.127l-27.866-5.397l27.866-28.046V327.127z    M377.262,335.53l26.211,52.414l-52.414-57.49L377.262,335.53z M462.626,335.53l26.211-5.076l-52.413,57.49L462.626,335.53z"/><path d="M419.952,208.015c-2.219,0-3.999,1.788-3.999,3.999v47.985c0,2.21,1.78,3.999,3.999,3.999c2.202,0,3.999-1.789,3.999-3.999   v-47.985C423.951,209.803,422.154,208.015,419.952,208.015z"/><path d="M329.151,233.179c-1.562,1.562-1.562,4.093,0,5.654l31.99,31.99c0.781,0.781,1.796,1.172,2.827,1.172   c1.016,0,2.047-0.391,2.827-1.172c1.563-1.562,1.563-4.093,0-5.654l-31.99-31.99C333.244,231.617,330.713,231.617,329.151,233.179z   "/><path d="M510.752,233.179c-1.562-1.562-4.092-1.562-5.654,0l-31.99,31.99c-1.563,1.562-1.563,4.093,0,5.654   c0.781,0.781,1.797,1.172,2.827,1.172c1.016,0,2.046-0.391,2.827-1.172l31.99-31.99   C512.314,237.271,512.314,234.741,510.752,233.179z"/><path d="M76.053,144.034h-31.99c-2.21,0-3.999,1.788-3.999,3.999c0,2.21,1.789,3.999,3.999,3.999h31.99   c2.21,0,3.999-1.789,3.999-3.999C80.052,145.822,78.263,144.034,76.053,144.034z"/><path d="M212.012,176.024c2.21,0,3.999-1.789,3.999-3.999c0-2.21-1.789-3.999-3.999-3.999H108.043c-2.21,0-3.999,1.789-3.999,3.999   c0,2.21,1.789,3.999,3.999,3.999"/><path d="M92.048,168.027H52.06c-2.21,0-3.999,1.789-3.999,3.999c0,2.21,1.788,3.999,3.999,3.999h39.988   c2.21,0,3.999-1.789,3.999-3.999C96.047,169.815,94.258,168.027,92.048,168.027z"/><path d="M311.984,196.019c0-2.211-1.796-3.999-3.998-3.999H204.014c-2.21,0-3.999,1.788-3.999,3.999   c0,2.21,1.789,3.999,3.999,3.999h103.973C310.188,200.017,311.984,198.229,311.984,196.019z"/><path d="M56.059,196.019c0,2.21,1.789,3.999,3.999,3.999h127.961c2.21,0,3.999-1.789,3.999-3.999c0-2.211-1.789-3.999-3.999-3.999   H60.058C57.848,192.02,56.059,193.808,56.059,196.019z"/><path d="M60.058,248.002H84.05c2.21,0,3.999-1.789,3.999-3.999c0-2.211-1.788-3.999-3.999-3.999H60.058   c-2.21,0-3.999,1.788-3.999,3.999C56.059,246.214,57.848,248.002,60.058,248.002z"/><path d="M210.762,248.002c2.21,0,3.999-1.789,3.999-3.999c0-2.211-1.789-3.999-3.999-3.999H100.045   c-2.21,0-3.999,1.788-3.999,3.999c0,2.21,1.788,3.999,3.999,3.999H210.762z"/><path d="M60.058,335.976c-2.21,0-3.999,1.788-3.999,3.999c0,2.21,1.789,3.998,3.999,3.998H84.05c2.21,0,3.999-1.788,3.999-3.998   c0-2.211-1.788-3.999-3.999-3.999H60.058z"/><path d="M214.761,339.975c0-2.211-1.789-3.999-3.999-3.999H100.045c-2.21,0-3.999,1.788-3.999,3.999   c0,2.21,1.788,3.998,3.999,3.998h110.716C212.972,343.973,214.761,342.185,214.761,339.975z"/><path d="M244.002,216.012H68.055c-2.21,0-3.999,1.789-3.999,3.999c0,2.21,1.788,3.999,3.999,3.999h175.947   c2.21,0,3.999-1.789,3.999-3.999C248,217.801,246.212,216.012,244.002,216.012z"/><path d="M240.003,267.996c0-2.21-1.789-3.998-3.999-3.998h-71.978c-2.211,0-3.999,1.788-3.999,3.998   c0,2.211,1.788,3.999,3.999,3.999h71.978C238.214,271.995,240.003,270.207,240.003,267.996z"/><path d="M184.02,291.989c0-2.211-1.789-3.999-3.999-3.999H52.06c-2.21,0-3.999,1.788-3.999,3.999c0,2.21,1.788,3.999,3.999,3.999   h127.961C182.231,295.988,184.02,294.199,184.02,291.989z"/><path d="M144.032,363.967c0-2.21-1.789-3.998-3.999-3.998H52.06c-2.21,0-3.999,1.788-3.999,3.998c0,2.211,1.788,3.999,3.999,3.999   h87.973C142.244,367.966,144.032,366.178,144.032,363.967z"/><path d="M271.997,315.981c0-2.21-1.796-3.999-3.999-3.999h-111.97c-2.21,0-3.999,1.789-3.999,3.999s1.789,3.999,3.999,3.999h111.97   C270.201,319.98,271.997,318.191,271.997,315.981z"/><path d="M144.032,315.981c0-2.21-1.789-3.999-3.999-3.999H60.058c-2.21,0-3.999,1.789-3.999,3.999s1.789,3.999,3.999,3.999h79.976   C142.244,319.98,144.032,318.191,144.032,315.981z"/><path d="M44.063,391.959h31.99c2.21,0,3.999-1.789,3.999-3.999c0-2.211-1.789-3.999-3.999-3.999h-31.99   c-2.21,0-3.999,1.788-3.999,3.999C40.063,390.17,41.853,391.959,44.063,391.959z"/><path d="M196.017,295.988h47.985c2.21,0,3.999-1.789,3.999-3.999c0-2.211-1.789-3.999-3.999-3.999h-47.985   c-2.211,0-3.999,1.788-3.999,3.999C192.018,294.199,193.806,295.988,196.017,295.988z"/><path d="M60.058,271.995h87.974c2.21,0,3.999-1.788,3.999-3.999c0-2.21-1.789-3.998-3.999-3.998H60.058   c-2.21,0-3.999,1.788-3.999,3.998C56.059,270.207,57.848,271.995,60.058,271.995z"/></g></g><g id="SvgjsG1018" featurekey="nameLeftFeature-0" transform="matrix(2.500000066227385,0,0,2.500000066227385,-2.250000298023232,151.49999675485816)" fill="#111"><path d="M12.58 18.5 c-1.3 1.08 -2.9 1.7 -4.62 1.7 c-3.44 0 -7.06 -2.98 -7.06 -7.2 s3.62 -7.2 7.06 -7.2 c1.7 0 3.28 0.6 4.58 1.66 l-0.4 0.46 c-1.18 -1 -2.64 -1.52 -4.12 -1.52 c-3.16 0 -6.54 2.68 -6.54 6.6 s3.38 6.6 6.54 6.6 c1.48 0 2.96 -0.52 4.12 -1.5 z M24.380000000000003 6 l-5.14 7.12 l0 6.88 l-0.58 0 l0 -6.88 l-5.12 -7.12 l0.7 0 l4.72 6.56 l4.72 -6.56 l0.7 0 z M32.080000000000005 12.36 c2.14 0.42 3.18 2.14 3.18 3.74 c0 2.38 -1.6 3.9 -5.04 3.9 l-4.04 0 l0 -14 l4.4 0 c2.62 0 3.88 1.5 3.88 3.28 c0 1.18 -0.58 2.48 -2.38 3.08 z M30.580000000000005 6.5600000000000005 l-3.82 0 l0 5.52 l3.82 0 c1.92 0 3.32 -1.14 3.32 -2.78 c0 -1.68 -1.22 -2.74 -3.32 -2.74 z M30.240000000000002 19.44 c3.1 0 4.44 -1.24 4.44 -3.32 c0 -1.78 -1.34 -3.48 -4.16 -3.48 l-3.76 0 l0 6.8 l3.48 0 z M37.74000000000001 19.42 l7.28 0 l0 0.58 l-7.68 0 l-0.18 0 l0 -14 l0.58 0 l7.1 0 l0 0.58 l-7.1 0 l0 6.1 l5.66 0 l0 0.58 l-5.66 0 l0 6.16 z M56.78000000000001 20 l-0.72 0 l-4.08 -5.38 c-0.2 0.02 -0.4 0.02 -0.6 0.02 l-3.68 0 l0 5.36 l-0.58 0 l0 -14 l4.26 0 c3.14 0 4.8 1.94 4.8 4.3 c0 2.08 -1.22 3.8 -3.56 4.24 z M47.70000000000001 14.04 l3.76 0 c2.52 0 4.14 -1.46 4.14 -3.74 c0 -2.32 -1.62 -3.72 -4.14 -3.72 l-3.76 0 l0 7.46 z"/></g><g id="SvgjsG1019" featurekey="nameRightFeature-0" transform="matrix(2.5714285714285716,0,0,2.5714285714285716,143.9142862047468,150.57142857142856)" fill="#111"><path d="M10.26 20 l-4.34 -6 l-1.72 1.96 l0 4.04 l-3 0 l0 -14 l3 0 l0 6.1 l5.18 -6.1 l3.6 0 l-5.26 5.96 l5.9 8.04 l-3.36 0 z M26.340000000000003 20 l-3.1 0 l-2.98 -4.66 l-0.04 0 l-1.98 0 l0 4.66 l-2.92 0 l0 -14 l4.9 0 c3.14 0 5.18 1.9 5.18 4.76 c0 1.9 -0.92 3.32 -2.48 4.04 z M18.240000000000002 8.68 l0 4.14 l1.8 0 c1.44 0 2.44 -0.56 2.44 -2.06 c0 -1.48 -1 -2.08 -2.44 -2.08 l-1.8 0 z M39.32 20 l-1.06 -2.5 l-6.76 0 l-1.06 2.5 l-3.1 0 l6.22 -14 l2.64 0 l6.24 14 l-3.12 0 z M32.52 15.120000000000001 l4.72 0 l-2.36 -5.54 z M52.900000000000006 8.66 l-5.86 0 l0 3.06 l4.82 0 l0 2.5 l-4.82 0 l0 5.78 l-3 0 l0 -14 l8.86 0 l0 2.66 z M64.3 6 l0 2.68 l-3.48 0 l0 11.32 l-2.92 0 l0 -11.32 l-3.5 0 l0 -2.68 l9.9 0 z"/></g></svg>